<svg width="26" height="26" viewBox="0 0 26 26" fill="none" xmlns="http://www.w3.org/2000/svg">
<path d="M13 8C14.3261 8 15.5979 8.52678 16.5356 9.46447C17.4733 10.4021 18 11.6739 18 13C18 14.3261 17.4733 15.5979 16.5356 16.5355C15.5979 17.4732 14.3261 18 13 18C11.674 18 10.4022 17.4732 9.46451 16.5355C8.52683 15.5979 8.00005 14.3261 8.00005 13C8.00005 11.6739 8.52683 10.4021 9.46451 9.46447C10.4022 8.52678 11.674 8 13 8ZM13 10.5C12.337 10.5 11.7011 10.7634 11.2323 11.2322C10.7634 11.7011 10.5 12.337 10.5 13C10.5 13.663 10.7634 14.2989 11.2323 14.7678C11.7011 15.2366 12.337 15.5 13 15.5C13.6631 15.5 14.299 15.2366 14.7678 14.7678C15.2367 14.2989 15.5 13.663 15.5 13C15.5 12.337 15.2367 11.7011 14.7678 11.2322C14.299 10.7634 13.6631 10.5 13 10.5ZM10.5 25.5C10.1875 25.5 9.92505 25.275 9.87505 24.975L9.41255 21.6625C8.62505 21.35 7.95005 20.925 7.30005 20.425L4.18755 21.6875C3.91255 21.7875 3.57505 21.6875 3.42505 21.4125L0.925049 17.0875C0.848543 16.9587 0.821572 16.8065 0.84918 16.6592C0.876787 16.512 0.957082 16.3798 1.07505 16.2875L3.71255 14.2125L3.62505 13L3.71255 11.75L1.07505 9.7125C0.957082 9.62017 0.876787 9.48803 0.84918 9.34079C0.821572 9.19355 0.848543 9.0413 0.925049 8.9125L3.42505 4.5875C3.57505 4.3125 3.91255 4.2 4.18755 4.3125L7.30005 5.5625C7.95005 5.075 8.62505 4.65 9.41255 4.3375L9.87505 1.025C9.92505 0.725 10.1875 0.5 10.5 0.5H15.5C15.8125 0.5 16.075 0.725 16.125 1.025L16.5875 4.3375C17.375 4.65 18.05 5.075 18.7 5.5625L21.8125 4.3125C22.0875 4.2 22.425 4.3125 22.5751 4.5875L25.0751 8.9125C25.2375 9.1875 25.1625 9.525 24.9251 9.7125L22.2875 11.75L22.375 13L22.2875 14.25L24.9251 16.2875C25.1625 16.475 25.2375 16.8125 25.0751 17.0875L22.5751 21.4125C22.425 21.6875 22.0875 21.8 21.8125 21.6875L18.7 20.4375C18.05 20.925 17.375 21.35 16.5875 21.6625L16.125 24.975C16.075 25.275 15.8125 25.5 15.5 25.5H10.5ZM12.0625 3L11.6 6.2625C10.1 6.575 8.77505 7.375 7.81255 8.4875L4.80005 7.1875L3.86255 8.8125L6.50005 10.75C6.00005 12.2083 6.00005 13.7917 6.50005 15.25L3.85005 17.2L4.78755 18.825L7.82505 17.525C8.78755 18.625 10.1 19.425 11.5875 19.725L12.05 23H13.95L14.4125 19.7375C15.9 19.425 17.2125 18.625 18.175 17.525L21.2125 18.825L22.15 17.2L19.5 15.2625C20 13.8 20 12.2125 19.5 10.75L22.1375 8.8125L21.2 7.1875L18.1875 8.4875C17.2053 7.3504 15.873 6.57209 14.4 6.275L13.9375 3H12.0625Z" fill="#FFFFFE"/>
</svg>
