<svg width="60" height="60" viewBox="0 0 60 60" fill="none" xmlns="http://www.w3.org/2000/svg">
<path d="M32.9166 32.9167H27.0833V15.4167H32.9166V32.9167ZM32.9166 44.5834H27.0833V38.75H32.9166V44.5834ZM29.9999 0.833374C26.1697 0.833374 22.377 1.58779 18.8383 3.05355C15.2997 4.51932 12.0843 6.66772 9.37597 9.37609C3.90616 14.8459 0.833252 22.2646 0.833252 30C0.833252 37.7355 3.90616 45.1542 9.37597 50.624C12.0843 53.3324 15.2997 55.4808 18.8383 56.9465C22.377 58.4123 26.1697 59.1667 29.9999 59.1667C37.7354 59.1667 45.1541 56.0938 50.6239 50.624C56.0937 45.1542 59.1666 37.7355 59.1666 30C59.1666 26.1698 58.4122 22.3771 56.9464 18.8384C55.4806 15.2998 53.3322 12.0845 50.6239 9.37609C47.9155 6.66772 44.7002 4.51932 41.1615 3.05355C37.6229 1.58779 33.8301 0.833374 29.9999 0.833374Z" fill="#FFFFFE"/>
</svg>
